<svg fill="#000000" width="24px" height="24px" viewBox="0 0 56 56" class="dashboard-icon" version="1.1"
    xml:space="preserve" xmlns="http://www.w3.org/2000/svg"
    xmlns:xlink="http://www.w3.org/1999/xlink"><path d="M53,30.1c0-0.4-0.3-0.8-0.7-0.9c-0.2-0.1-5-1.5-8,0.8c-0.3,0.3-0.6,0.6-0.9,0.9v-2.2c1.5-1.2,6.4-5.4,6.4-10.7  c0-6.1-6.5-10.8-6.8-11c-0.3-0.2-0.8-0.2-1.2,0c-0.3,0.2-6.8,4.9-6.8,11c0,5.3,4.9,9.5,6.4,10.7v2.9c-0.3-0.4-0.7-0.8-1.1-1.1  c-3.1-2.2-7.8-0.6-8-0.6c-0.4,0.1-0.7,0.5-0.7,0.9c0,0.2,0,5.2,3.1,7.4c1.3,0.9,2.8,1.2,4.2,1.2c1,0,1.8-0.1,2.5-0.3v2.2  c0,3.3-2.7,6-6,6H17.3c-3.3,0-6-2.7-6-6V27.1c3.6-0.5,6.4-3.6,6.4-7.3v-6.4c0-0.6-0.4-1-1-1h-2.2V8.7c0-0.6-0.4-1-1-1s-1,0.4-1,1  v3.8H8V8.7c0-0.6-0.4-1-1-1s-1,0.4-1,1v3.8H4c-0.6,0-1,0.4-1,1v6.4c0,3.7,2.8,6.8,6.4,7.3v14.2c0,4.4,3.6,8,8,8h18.1  c4.4,0,8-3.6,8-8v-2.6c0.6,0.1,1.4,0.2,2.2,0.2c1.5,0,3.1-0.3,4.5-1.3C53.1,35.3,53,30.3,53,30.1z M5,19.9v-5.4h10.7v5.4  c0,3-2.4,5.4-5.4,5.4S5,22.8,5,19.9z M37,17.9c0-4.1,3.9-7.7,5.4-8.9c1.5,1.2,5.4,4.8,5.4,8.9c0,3.4-2.6,6.4-4.4,8.1v-8.1  c0-0.6-0.4-1-1-1s-1,0.4-1,1V26C39.6,24.3,37,21.3,37,17.9z M35.8,36.6c-1.7-1.2-2.1-3.8-2.3-5c1.2-0.3,3.8-0.7,5.5,0.5  c1.7,1.2,2.1,3.8,2.3,5C39.9,37.5,37.4,37.7,35.8,36.6z M48.9,36c-1.6,1.2-4.2,0.9-5.5,0.7c0.1-1.3,0.5-3.8,2.1-5.1  c1.6-1.2,4.2-0.9,5.5-0.7C50.9,32.2,50.5,34.8,48.9,36z"/></svg>