<svg stroke="#ffffff" height="24px" width="24px" version="1.0" id="Layer_1"
	xmlns="http://www.w3.org/2000/svg" xmlns:xlink="http://www.w3.org/1999/xlink"
	viewBox="0 0 24 24" xml:space="preserve">
<g>
	<path stroke-width="0" d="M22.5,8H22V7.5C22,6.7,21.3,6,20.5,6H20V5.5C20,4.7,19.3,4,18.5,4h-17C0.7,4,0,4.7,0,5.5v10C0,16.3,0.7,17,1.5,17H2v0.5
		C2,18.3,2.7,19,3.5,19H4v0.5C4,20.3,4.7,21,5.5,21h17c0.8,0,1.5-0.7,1.5-1.5v-10C24,8.7,23.3,8,22.5,8z M1,15.5v-10
		C1,5.2,1.2,5,1.5,5h17C18.8,5,19,5.2,19,5.5v10c0,0.3-0.2,0.5-0.5,0.5h-17C1.2,16,1,15.8,1,15.5z M3,17.5V17h15.5
		c0.8,0,1.5-0.7,1.5-1.5V7h0.5C20.8,7,21,7.2,21,7.5v10c0,0.3-0.2,0.5-0.5,0.5h-17C3.2,18,3,17.8,3,17.5z M23,19.5
		c0,0.3-0.2,0.5-0.5,0.5h-17C5.2,20,5,19.8,5,19.5V19h15.5c0.8,0,1.5-0.7,1.5-1.5V9h0.5C22.8,9,23,9.2,23,9.5V19.5z"/>
	<path stroke-width="0" d="M17.5,8C16.7,8,16,7.3,16,6.5C16,6.2,15.8,6,15.5,6h-11C4.2,6,4,6.2,4,6.5C4,7.3,3.3,8,2.5,8C2.2,8,2,8.2,2,8.5v4
		C2,12.8,2.2,13,2.5,13C3.3,13,4,13.7,4,14.5C4,14.8,4.2,15,4.5,15h11c0.3,0,0.5-0.2,0.5-0.5c0-0.8,0.7-1.5,1.5-1.5
		c0.3,0,0.5-0.2,0.5-0.5v-4C18,8.2,17.8,8,17.5,8z M12,10.5c0,1.9-0.9,3.5-2,3.5s-2-1.6-2-3.5S8.9,7,10,7S12,8.6,12,10.5z M3,12.1
		V8.9C4,8.8,4.8,8,4.9,7h3.2C7.4,7.8,7,9.1,7,10.5s0.4,2.7,1.1,3.5H4.9C4.8,13,4,12.2,3,12.1z M17,12.1c-1,0.2-1.8,1-2,1.9h-3.2
		c0.7-0.8,1.1-2.1,1.1-3.5S12.6,7.8,11.9,7H15c0.2,1,1,1.8,2,1.9V12.1z"/>
</g>
</svg>