<svg version="1.1" id="_x32_" height="24px" width="24px" xmlns="http://www.w3.org/2000/svg"
    xmlns:xlink="http://www.w3.org/1999/xlink"
    viewBox="0 0 512 512" xml:space="preserve">
<g>
	<rect x="81.977" y="163.962" width="82.436" height="73.278"/>
	<rect x="214.778" y="163.962" width="82.443" height="73.278"/>
	<rect x="347.594" y="163.962" width="82.42" height="73.278"/>
	<rect x="81.977" y="273.866" width="82.436" height="73.27"/>
	<rect x="214.778" y="273.866" width="82.443" height="73.27"/>
	<rect x="347.594" y="273.866" width="82.42" height="73.27"/>
	<rect x="81.977" y="383.778" width="82.436" height="73.269"/>
	<rect x="214.778" y="383.778" width="82.443" height="73.269"/>
	<rect x="347.594" y="383.778" width="82.42" height="73.269"/>
	<path d="M118.612,89.297c9.482,0,17.176-7.686,17.176-17.168v-54.96C135.788,7.686,128.094,0,118.612,0
		c-9.482,0-17.176,7.686-17.176,17.169v54.96C101.436,81.611,109.13,89.297,118.612,89.297z"/>
	<path d="M255.992,89.297c9.483,0,17.177-7.686,17.177-17.168v-54.96C273.169,7.686,265.475,0,255.992,0
		c-9.482,0-17.168,7.686-17.168,17.169v54.96C238.824,81.611,246.51,89.297,255.992,89.297z"/>
	<path d="M424.287,44.899v27.229c0,17.038-13.861,30.907-30.914,30.907c-17.038,0-30.906-13.87-30.906-30.907V44.899
		h-75.559v27.229c0,17.038-13.869,30.907-30.914,30.907c-17.038,0-30.907-13.87-30.907-30.907V44.899h-75.558v27.229
		c0,17.038-13.87,30.907-30.915,30.907c-17.038,0-30.914-13.87-30.914-30.907V44.899H17.866V512h476.267V44.899H424.287z
		 M466.65,255.557v109.904v9.15v109.912H329.27h-9.151H191.89h-9.167H45.343V374.612v-9.15V255.557v-128.23h137.38h9.167h128.229
		h9.151h137.38V255.557z"/>
	<path d="M393.372,89.297c9.49,0,17.176-7.686,17.176-17.168v-54.96C410.549,7.686,402.863,0,393.372,0
		c-9.482,0-17.169,7.686-17.169,17.169v54.96C376.204,81.611,383.89,89.297,393.372,89.297z"/>
</g>
</svg>