<svg height="24" viewBox="0 0 24 24" width="24" xmlns="http://www.w3.org/2000/svg"><path d="m14 4.5c0-.28.22-.5.5-.5s.5.22.5.5-.22.5-.5.5-.5-.22-.5-.5m6 14.5c0 2.21-1.79 4-4 4h-8c-2.21 0-4-1.79-4-4s1.79-4 4-4h.13c-2.46-1.36-4.13-4-4.13-7 0-2.39 1.06-4.53 2.72-6h10.56c1.66 1.47 2.72 3.61 2.72 6 0 3-1.67 5.64-4.13 7h.13c2.21 0 4 1.79 4 4m-3.5-7c0-1.1-.89-2-2-2s-2 .9-2 2c0 1.11.9 2 2 2s2-.89 2-2m.5-6c-1.1 0-2 .9-2 2 0 1.11.9 2 2 2s2-.89 2-2c0-1.1-.89-2-2-2m-4-1.5c0 .83.67 1.5 1.5 1.5s1.5-.67 1.5-1.5-.67-1.5-1.5-1.5-1.5.67-1.5 1.5m-1 1.5c-1.1 0-2 .9-2 2 0 1.11.9 2 2 2s2-.89 2-2c0-1.1-.89-2-2-2m-4-1.5c0 .83.67 1.5 1.5 1.5s1.5-.67 1.5-1.5-.67-1.5-1.5-1.5-1.5.67-1.5 1.5m-1 5.5c1.11 0 2-.89 2-2 0-1.1-.89-2-2-2s-2 .9-2 2c0 1.11.9 2 2 2m2.5 4c1.11 0 2-.89 2-2 0-1.1-.89-2-2-2s-2 .9-2 2c0 1.11.9 2 2 2m1.5 5c0-1.66-1.34-3-3-3s-3 1.34-3 3 1.34 3 3 3 3-1.34 3-3m8 0c0-1.66-1.34-3-3-3s-3 1.34-3 3 1.34 3 3 3 3-1.34 3-3m-2-10.5c.28 0 .5-.22.5-.5s-.22-.5-.5-.5-.5.22-.5.5.22.5.5.5m-2.5 3c-.28 0-.5.22-.5.5s.22.5.5.5.5-.22.5-.5-.22-.5-.5-.5m1.5 6.5c-.55 0-1 .45-1 1s.45 1 1 1 1-.45 1-1-.45-1-1-1m-4-9.5c.28 0 .5-.22.5-.5s-.22-.5-.5-.5-.5.22-.5.5.22.5.5.5m-4 9.5c-.55 0-1 .45-1 1s.45 1 1 1 1-.45 1-1-.45-1-1-1m-1-10.5c-.28 0-.5.22-.5.5s.22.5.5.5.5-.22.5-.5-.22-.5-.5-.5m2.5-2.5c.28 0 .5-.22.5-.5s-.22-.5-.5-.5-.5.22-.5.5.22.5.5.5m.5 7c0-.28-.22-.5-.5-.5s-.5.22-.5.5.22.5.5.5.5-.22.5-.5z"/></svg>