<?xml version="1.0" encoding="UTF-8" standalone="no"?>
<!-- Created with Inkscape (http://www.inkscape.org/) -->
<svg width="100mm" height="88.855431mm" viewBox="0 0 100 88.855431" version="1.1" id="svg5" inkscape:version="1.1 (c4e8f9ed74, 2021-05-24)" sodipodi:docname="type2.svg" xmlns:inkscape="http://www.inkscape.org/namespaces/inkscape" xmlns:sodipodi="http://sodipodi.sourceforge.net/DTD/sodipodi-0.dtd" xmlns="http://www.w3.org/2000/svg" xmlns:svg="http://www.w3.org/2000/svg">
  <sodipodi:namedview id="namedview7" pagecolor="#505050" bordercolor="#eeeeee" borderopacity="1" inkscape:pageshadow="0" inkscape:pageopacity="0" inkscape:pagecheckerboard="0" inkscape:document-units="mm" showgrid="false" fit-margin-top="0" fit-margin-left="0" fit-margin-right="0" fit-margin-bottom="0" inkscape:zoom="1.3416246" inkscape:cx="-16.770712" inkscape:cy="279.51187" inkscape:window-width="2560" inkscape:window-height="1425" inkscape:window-x="0" inkscape:window-y="15" inkscape:window-maximized="1" inkscape:current-layer="layer1"/>
  <defs id="defs2"/>
  <g inkscape:label="Layer 1" inkscape:groupmode="layer" id="layer1" transform="translate(-51.084226,-65.545353)">
    <path id="path1320-1" style="fill:#ffffff;stroke-width:0.317813" d="m 82.628408,65.632254 c -6.379974,0.08241 -12.597624,1.001699 -17.793184,5.20729 -18.985132,17.613409 -17.780735,50.787306 0.337675,68.594236 12.936387,13.47363 33.822759,18.40121 51.496261,12.51824 21.68154,-6.809 36.59749,-29.76386 34.15311,-52.323697 C 149.11819,86.624403 143.23221,71.892777 130.08373,66.84888 113.37941,65.334145 98.067667,65.488472 82.628408,65.632254 Z" sodipodi:nodetypes="ccccccc"/>
    <path id="path1320" style="opacity:1;fill:#000000;stroke-width:0.317813" d="m 82.628405,65.632256 c -6.379974,0.08241 -12.597624,1.001699 -17.793184,5.20729 -18.985132,17.613407 -17.780735,50.787304 0.337676,68.594234 12.936387,13.47363 33.822756,18.40121 51.496263,12.51824 21.68154,-6.809 36.59749,-29.76386 34.15311,-52.323699 C 149.11819,86.624399 143.23221,71.892779 130.08373,66.848882 113.37941,65.334147 98.067664,65.488474 82.628405,65.632256 Z m 1.858462,5.730566 c 4.612841,0.01039 9.136903,0.117512 13.263833,-0.05983 9.44272,-0.0029 21.64324,-0.177912 30.97115,1.416121 11.41386,4.378475 14.05942,16.990791 15.5387,28.279157 2.12189,19.58362 -10.82605,39.50987 -29.64724,45.42057 -15.341916,5.10687 -33.662593,0.87308 -44.892336,-10.82302 C 53.992854,120.1381 52.67542,91.834894 68.199568,75.701094 72.709701,72.050328 78.556075,71.349465 84.486867,71.362822 Z" sodipodi:nodetypes="cccccccsccccccs"/>
    <path id="path861-0" style="fill:#000000;stroke:#000000;stroke-width:0.25071" d="m 100.73062,94.02749 a 10.084702,10.084702 0 0 0 -10.08498,10.08436 10.084702,10.084702 0 0 0 10.08498,10.08496 10.084702,10.084702 0 0 0 10.08497,-10.08496 10.084702,10.084702 0 0 0 -10.08497,-10.08436 z m 0,5.338887 a 4.7457422,4.7457422 0 0 1 4.74547,4.745473 4.7457422,4.7457422 0 0 1 -4.74547,4.74608 4.7457422,4.7457422 0 0 1 -4.745472,-4.74608 4.7457422,4.7457422 0 0 1 4.745472,-4.745473 z"/>
    <path id="path861-0-6" style="fill:#000000;stroke:#000000;stroke-width:0.25071" d="m 125.87934,94.027493 a 10.084702,10.084702 0 0 0 -10.08498,10.084357 10.084702,10.084702 0 0 0 10.08498,10.08496 10.084702,10.084702 0 0 0 10.08497,-10.08496 10.084702,10.084702 0 0 0 -10.08497,-10.084357 z m 0,5.338887 a 4.7457422,4.7457422 0 0 1 4.74547,4.74547 4.7457422,4.7457422 0 0 1 -4.74547,4.74608 4.7457422,4.7457422 0 0 1 -4.74548,-4.74608 4.7457422,4.7457422 0 0 1 4.74548,-4.74547 z"/>
    <path id="path861-0-1" style="fill:#000000;stroke:#000000;stroke-width:0.25071" d="M 75.581917,94.02749 A 10.084702,10.084702 0 0 0 65.496939,104.11185 10.084702,10.084702 0 0 0 75.581917,114.19681 10.084702,10.084702 0 0 0 85.666886,104.11185 10.084702,10.084702 0 0 0 75.581917,94.02749 Z m 0,5.338887 a 4.7457422,4.7457422 0 0 1 4.74547,4.745473 4.7457422,4.7457422 0 0 1 -4.74547,4.74608 4.7457422,4.7457422 0 0 1 -4.74547,-4.74608 4.7457422,4.7457422 0 0 1 4.74547,-4.745473 z"/>
    <path id="path861-0-5" style="fill:#000000;stroke:#000000;stroke-width:0.25071" d="m 88.156267,116.41099 a 10.084702,10.084702 0 0 0 -10.084978,10.08435 10.084702,10.084702 0 0 0 10.084978,10.08498 10.084702,10.084702 0 0 0 10.084969,-10.08498 10.084702,10.084702 0 0 0 -10.084969,-10.08435 z m 0,5.33889 a 4.7457422,4.7457422 0 0 1 4.74547,4.74546 4.7457422,4.7457422 0 0 1 -4.74547,4.7461 4.7457422,4.7457422 0 0 1 -4.74547,-4.7461 4.7457422,4.7457422 0 0 1 4.74547,-4.74546 z"/>
    <path id="path861-0-9" style="fill:#000000;stroke:#000000;stroke-width:0.25071" d="m 113.30499,116.41099 a 10.084702,10.084702 0 0 0 -10.08498,10.08435 10.084702,10.084702 0 0 0 10.08498,10.08497 10.084702,10.084702 0 0 0 10.08497,-10.08497 10.084702,10.084702 0 0 0 -10.08497,-10.08435 z m 0,5.33888 a 4.7457422,4.7457422 0 0 1 4.74547,4.74547 4.7457422,4.7457422 0 0 1 -4.74547,4.7461 4.7457422,4.7457422 0 0 1 -4.74547,-4.7461 4.7457422,4.7457422 0 0 1 4.74547,-4.74547 z"/>
    <path id="path861-0-4" style="fill:#000000;stroke:#000000;stroke-width:0.162279" d="m 113.30499,79.57861 a 6.5275881,6.5275881 0 0 0 -6.52777,6.527364 6.5275881,6.5275881 0 0 0 6.52777,6.527763 6.5275881,6.5275881 0 0 0 6.52776,-6.527763 6.5275881,6.5275881 0 0 0 -6.52776,-6.527364 z m 0,3.455736 a 3.0718062,3.0718062 0 0 1 3.07162,3.071628 3.0718062,3.0718062 0 0 1 -3.07162,3.072027 3.0718062,3.0718062 0 0 1 -3.07163,-3.072027 3.0718062,3.0718062 0 0 1 3.07163,-3.071628 z"/>
    <path id="path861-0-4-9" style="fill:#000000;stroke:#000000;stroke-width:0.162279" d="m 88.156273,79.694011 a 6.5275881,6.5275881 0 0 0 -6.527769,6.527364 6.5275881,6.5275881 0 0 0 6.527769,6.527763 6.5275881,6.5275881 0 0 0 6.527758,-6.527763 6.5275881,6.5275881 0 0 0 -6.527758,-6.527364 z m 0,3.455736 a 3.0718062,3.0718062 0 0 1 3.071618,3.071628 3.0718062,3.0718062 0 0 1 -3.071618,3.072028 3.0718062,3.0718062 0 0 1 -3.071628,-3.072028 3.0718062,3.0718062 0 0 1 3.071628,-3.071628 z"/>
  </g>
</svg>