<?xml version="1.0" encoding="utf-8"?>
<!-- Generator: Adobe Adobe Illustrator 24.2.0, SVG Export Plug-In . SVG Version: 6.00 Build 0)  -->
<svg version="1.1" id="Layer_1" xmlns="http://www.w3.org/2000/svg" xmlns:xlink="http://www.w3.org/1999/xlink" x="0px" y="0px"
	 width="1000px" height="1000px" viewBox="0 0 1000 1000" style="enable-background:new 0 0 1000 1000;" xml:space="preserve">
<style type="text/css">
	.st0{fill:none;stroke:#ffffff;stroke-width:32;}
	.st1{fill:none;stroke:#ffffff;stroke-width:18.4;}
	.st2{fill:none;stroke:#ffffff;stroke-width:18;}
</style>
<g>
	<g id="layer2" transform="translate(-1.0372319,-464.30969)">
		<path id="path3251" class="st0" d="M504.27,1277.92c-240.75-1.31-353.43-165.86-353.76-353.49
			c-0.25-141.02,73.96-244.86,192.1-269.87c51.89-1.88,111.51-3.92,163.42-3.86"/>
		<path id="path3255" class="st1" d="M503.83,1208.44c-158.43,0.76-281.52-119.58-279.9-275.49
			c1.15-114.85,69.27-197.01,142.53-208.64c44.28-7.03,90.72-8.97,137.82-7.86"/>
		<path id="path5236" class="st0" d="M497.81,1277.92c240.75-1.31,353.43-165.86,353.76-353.49
			c0.25-141.02-73.96-244.86-192.1-269.87c-51.89-1.88-111.51-3.92-163.42-3.86"/>
		<path id="path5232" class="st1" d="M498.24,1208.44c158.43,0.76,281.52-119.58,279.9-275.49
			C777,818.1,708.88,735.94,635.62,724.31c-44.28-7.03-90.72-8.97-137.82-7.86"/>
		<path id="use4234" class="st1" d="M737.91,943.88c0-35.39-28.72-64.11-64.11-64.11c-35.39,0-64.11,28.72-64.11,64.11
			c0,35.39,28.72,64.11,64.11,64.11C709.19,1007.99,737.91,979.27,737.91,943.88z"/>
		<path id="use4240" class="st1" d="M649.04,1096.15c0-35.39-28.72-64.11-64.11-64.11c-35.39,0-64.11,28.72-64.11,64.11
			c0,35.39,28.72,64.11,64.11,64.11C620.32,1160.26,649.04,1131.54,649.04,1096.15z"/>
		<path id="path4253" class="st1" d="M570.14,943.88c0-35.39-28.72-64.11-64.11-64.11s-64.11,28.72-64.11,64.11
			c0,35.39,28.72,64.11,64.11,64.11S570.14,979.27,570.14,943.88z"/>
		<path id="use5260" class="st1" d="M631.26,806.74c0-26.54-21.54-48.08-48.08-48.08s-48.08,21.54-48.08,48.08
			c0,26.54,21.54,48.08,48.08,48.08S631.26,833.28,631.26,806.74z"/>
		<path id="use3296" class="st1" d="M398.32,943.88c0-35.39-28.72-64.11-64.11-64.11s-64.11,28.72-64.11,64.11
			c0,35.39,28.72,64.11,64.11,64.11S398.32,979.27,398.32,943.88L398.32,943.88z"/>
		<path id="use3298" class="st1" d="M491.23,1096.15c0-35.39-28.72-64.11-64.11-64.11s-64.11,28.72-64.11,64.11
			c0,35.39,28.72,64.11,64.11,64.11S491.23,1131.54,491.23,1096.15z"/>
		<path id="use3300" class="st2" d="M473.46,806.74c0-26.54-21.54-48.08-48.08-48.08c-26.54,0-48.08,21.54-48.08,48.08
			c0,26.54,21.54,48.08,48.08,48.08C451.92,854.82,473.46,833.28,473.46,806.74z"/>
	</g>
</g>
</svg>
