<?xml version="1.0" encoding="utf-8"?>
<!-- Generator: Adobe Adobe Illustrator 24.2.0, SVG Export Plug-In . SVG Version: 6.00 Build 0)  -->
<svg version="1.1" id="Layer_1" xmlns="http://www.w3.org/2000/svg" xmlns:xlink="http://www.w3.org/1999/xlink" x="0px" y="0px"
	 width="1000px" height="1000px" viewBox="0 0 1000 1000" style="enable-background:new 0 0 1000 1000;" xml:space="preserve">
<style type="text/css">
	.st0{fill:none;stroke:#000000;stroke-width:18.4;stroke-miterlimit:3.2;}
	.st1{fill:none;stroke:#000000;stroke-width:32;stroke-linejoin:round;stroke-miterlimit:3.2;}
	.st2{fill:none;stroke:#000000;stroke-width:32;stroke-linecap:round;stroke-linejoin:round;stroke-miterlimit:3.2;}
</style>
<g>
	<g id="layer1">
		<ellipse id="ellipse4206" class="st0" cx="593.96" cy="419.85" rx="57.83" ry="56.47"/>
		<ellipse id="ellipse4208" class="st0" cx="408.77" cy="419.85" rx="57.83" ry="56.47"/>
		<ellipse id="ellipse4210" class="st0" cx="321.62" cy="267.34" rx="57.83" ry="56.47"/>
		<ellipse id="ellipse4212" class="st0" cx="501.36" cy="267.34" rx="57.83" ry="56.47"/>
		<ellipse id="ellipse4214" class="st0" cx="678.38" cy="267.34" rx="57.83" ry="56.47"/>
		<ellipse id="ellipse4216" class="st0" cx="592.6" cy="143.43" rx="42.22" ry="43.58"/>
		<ellipse id="ellipse4218" class="st0" cx="415.58" cy="143.43" rx="42.22" ry="43.58"/>
		<path id="path4231" class="st1" d="M318.89,15.43h370.38c0,0,38.84,26.26,55.2,44.31c16.36,18.04,31.95,42.31,42.84,61.91
			s19.72,37.16,27.23,59.92c7.51,22.76,14.4,46.47,16.34,76.26c1.94,29.78-0.88,70.54-8.17,100.77
			c-7.29,30.23-20.83,57.74-32.68,78.98c-11.85,21.24-20.53,32-35.4,49.02c-14.87,17.02-34.41,36.21-54.47,51.74
			s-41.15,29.76-65.36,40.85c-24.21,11.09-78.98,24.51-78.98,24.51s-74.17,9.95-133.45-10.89c-23.56-8.28-39-11.11-65.36-24.51
			c-33.02-16.79-64.82-38.08-89.87-65.36c-34.43-37.5-62.02-82.72-78.98-130.72c-13.42-38.01-17.82-79.54-16.34-119.83
			c1.13-30.6,8.28-61.21,19.06-89.87c9.16-24.35,24.7-47.76,38.13-68.08c13.14-19.88,36.28-41.67,51.74-54.47
			C296.24,27.14,318.89,15.43,318.89,15.43L318.89,15.43z"/>
		<ellipse id="path4151" class="st0" cx="351.58" cy="817.47" rx="90.85" ry="92.21"/>
		<ellipse id="ellipse4204" class="st0" cx="648.43" cy="814.75" rx="90.85" ry="92.21"/>
		<path id="rect4235" class="st2" d="M329.79,653.09h340.42c91.53,0,165.74,74.2,165.74,165.74l0,0
			c0,91.53-74.2,165.74-165.74,165.74H329.79c-91.53,0-165.74-74.2-165.74-165.74l0,0C164.05,727.3,238.25,653.09,329.79,653.09z"/>
		<path id="path4237" class="st0" d="M362.47,617.3l277.79,2.72"/>
	</g>
</g>
</svg>
