<?xml version="1.0" encoding="utf-8"?>
<!-- Generator: Adobe Adobe Illustrator 24.2.0, SVG Export Plug-In . SVG Version: 6.00 Build 0)  -->
<svg xmlns="http://www.w3.org/2000/svg" xml:space="preserve" id="Layer_1" x="0" y="0" version="1.1" viewBox="0 0 1000 1000">
	<style>.st0,.st1{fill:none;stroke:#000;stroke-width:32}.st1{stroke-width:18.4}</style>
	<g id="layer2" transform="translate(-1.037 -464.31)">
		<path id="path3251" d="M504.27 1277.92c-240.75-1.31-353.43-165.86-353.76-353.49-.25-141.02 73.96-244.86 192.1-269.87 51.89-1.88 111.51-3.92 163.42-3.86" class="st0" />
		<path id="path3255" d="M503.83 1208.44c-158.43.76-281.52-119.58-279.9-275.49 1.15-114.85 69.27-197.01 142.53-208.64 44.28-7.03 90.72-8.97 137.82-7.86" class="st1" />
		<path id="path5236" d="M497.81 1277.92c240.75-1.31 353.43-165.86 353.76-353.49.25-141.02-73.96-244.86-192.1-269.87-51.89-1.88-111.51-3.92-163.42-3.86" class="st0" />
		<path id="path5232" d="M498.24 1208.44c158.43.76 281.52-119.58 279.9-275.49C777 818.1 708.88 735.94 635.62 724.31c-44.28-7.03-90.72-8.97-137.82-7.86" class="st1" />
		<path id="use4234" d="M737.91 943.88c0-35.39-28.72-64.11-64.11-64.11s-64.11 28.72-64.11 64.11 28.72 64.11 64.11 64.11 64.11-28.72 64.11-64.11z" class="st1" />
		<path id="use4240" d="M649.04 1096.15c0-35.39-28.72-64.11-64.11-64.11s-64.11 28.72-64.11 64.11 28.72 64.11 64.11 64.11 64.11-28.72 64.11-64.11z" class="st1" />
		<path id="path4253" d="M570.14 943.88c0-35.39-28.72-64.11-64.11-64.11s-64.11 28.72-64.11 64.11 28.72 64.11 64.11 64.11 64.11-28.72 64.11-64.11z" class="st1" />
		<path id="use5260" d="M631.26 806.74c0-26.54-21.54-48.08-48.08-48.08s-48.08 21.54-48.08 48.08 21.54 48.08 48.08 48.08 48.08-21.54 48.08-48.08z" class="st1" />
		<path id="use3296" d="M398.32 943.88c0-35.39-28.72-64.11-64.11-64.11s-64.11 28.72-64.11 64.11 28.72 64.11 64.11 64.11 64.11-28.72 64.11-64.11z" class="st1" />
		<path id="use3298" d="M491.23 1096.15c0-35.39-28.72-64.11-64.11-64.11s-64.11 28.72-64.11 64.11 28.72 64.11 64.11 64.11 64.11-28.72 64.11-64.11z" class="st1" />
		<path id="use3300" fill="none" stroke="#000" stroke-width="18" d="M473.46 806.74c0-26.54-21.54-48.08-48.08-48.08s-48.08 21.54-48.08 48.08 21.54 48.08 48.08 48.08 48.08-21.54 48.08-48.08z" />
	</g>
</svg>