<svg xmlns="http://www.w3.org/2000/svg" version="1.1" xmlns:xlink="http://www.w3.org/1999/xlink" xmlns:svgjs="http://svgjs.dev/svgjs" width="1000" height="623" viewBox="0 0 1000 623"><g transform="matrix(1,0,0,1,-0.6060606060606233,0.2522267206477409)"><svg viewBox="0 0 396 247" data-background-color="#ffffff" preserveAspectRatio="xMidYMid meet" height="623" width="1000" xmlns="http://www.w3.org/2000/svg" xmlns:xlink="http://www.w3.org/1999/xlink"><defs></defs><g id="tight-bounds" transform="matrix(1,0,0,1,0.2400000000000091,-0.09999999999999432)"><svg viewBox="0 0 395.52 247.2" height="247.2" width="395.52"><g><svg></svg></g><g><svg viewBox="0 0 395.52 247.2" height="247.2" width="395.52"><g transform="matrix(1,0,0,1,75.54432,74.43178304940193)"><svg viewBox="0 0 244.43135999999998 98.33643390119613" height="98.33643390119613" width="244.43135999999998"><g><svg viewBox="0 0 244.43135999999998 98.33643390119613" height="98.33643390119613" width="244.43135999999998"><g><svg viewBox="0 0 362.1029238785899 145.67652137359465" height="98.33643390119613" width="244.43135999999998"><g transform="matrix(1,0,0,1,0,20.133296369288416)"><svg viewBox="0 0 244.43135999999998 105.40992863501782" height="105.40992863501782" width="244.43135999999998"><g><svg viewBox="0 0 244.43135999999998 105.40992863501782" height="105.40992863501782" width="244.43135999999998"><g><svg viewBox="0 0 244.43135999999998 67.22098428736965" height="67.22098428736965" width="244.43135999999998"><g transform="matrix(1,0,0,1,0,0)"><svg width="244.43135999999998" viewBox="2.3 -35 129.44 35.6" height="67.22098428736965" data-palette-color="#096a2e"><g class="undefined-text-0" data-fill-palette-color="primary" id="text-0"><path d="M14.35-25.15L14.35-25.15Q20.3-25.15 22.9-23.08 25.5-21 25.55-16.95L25.55-16.95Q25.6-13.6 23.98-11.88 22.35-10.15 18.6-10.15L18.6-10.15 4.6-10.15 4.6-13.9 16.95-13.9Q18.65-13.9 19.13-14.8 19.6-15.7 19.6-17L19.6-17Q19.55-19.05 18.43-19.85 17.3-20.65 14.6-20.65L14.6-20.65Q12.25-20.65 10.95-20 9.65-19.35 9.13-17.65 8.6-15.95 8.6-12.75L8.6-12.75Q8.6-9.35 9.25-7.5 9.9-5.65 11.4-4.98 12.9-4.3 15.4-4.3L15.4-4.3Q17.25-4.3 19.68-4.45 22.1-4.6 24.35-4.85L24.35-4.85 24.95-1Q23.6-0.45 21.85-0.1 20.1 0.25 18.23 0.43 16.35 0.6 14.7 0.6L14.7 0.6Q10.2 0.6 7.48-0.73 4.75-2.05 3.53-4.9 2.3-7.75 2.3-12.25L2.3-12.25Q2.3-17.1 3.53-19.93 4.75-22.75 7.43-23.95 10.1-25.15 14.35-25.15ZM59.35-34.5L65.6-34.5Q67.95-34.5 68-32.1L68-32.1 69.35 0 63.4 0 62.2-29.55 61.25-29.55 54.8-6.4Q54.35-4.35 52.25-4.35L52.25-4.35 47.85-4.35Q45.7-4.35 45.2-6.4L45.2-6.4 38.75-29.55 37.8-29.55 36.7 0 30.75 0 32.1-32.1Q32.2-34.5 34.5-34.5L34.5-34.5 40.75-34.5Q42.75-34.5 43.25-32.45L43.25-32.45 48.55-13.55Q48.9-12.35 49.12-11.15 49.35-9.95 49.65-8.75L49.65-8.75 50.4-8.75Q50.7-9.95 50.95-11.15 51.2-12.35 51.5-13.6L51.5-13.6 56.8-32.45Q57.25-34.5 59.35-34.5L59.35-34.5ZM88.3-25.15L88.3-25.15Q91.25-25.15 93.3-24.38 95.34-23.6 96.37-21.75 97.4-19.9 97.4-16.65L97.4-16.65 97.4 0 92.59 0 91.75-5.3 91.3-6 91.3-16.7Q91.3-18.65 90.4-19.53 89.5-20.4 86.95-20.4L86.95-20.4Q85.05-20.4 82.17-20.25 79.3-20.1 76.39-19.85L76.39-19.85 75.84-24Q77.59-24.35 79.8-24.6 82-24.85 84.25-25 86.5-25.15 88.3-25.15ZM81.84-15.1L94.8-15.1 94.75-11.35 83.5-11.35Q82-11.3 81.34-10.55 80.7-9.8 80.7-8.5L80.7-8.5 80.7-7.15Q80.7-5.65 81.5-4.9 82.3-4.15 84-4.15L84-4.15Q85.34-4.15 87-4.67 88.65-5.2 90.27-6.25 91.9-7.3 93.2-8.75L93.2-8.75 93.2-5.6Q92.7-4.85 91.75-3.83 90.8-2.8 89.42-1.8 88.05-0.8 86.27-0.15 84.5 0.5 82.34 0.5L82.34 0.5Q80.14 0.5 78.39-0.28 76.64-1.05 75.64-2.58 74.64-4.1 74.64-6.35L74.64-6.35 74.64-8.95Q74.64-11.85 76.57-13.48 78.5-15.1 81.84-15.1L81.84-15.1ZM104.04-35L110.09-35 110.04-7.4Q110.04-6 110.84-5.28 111.64-4.55 113.14-4.55L113.14-4.55 115.29-4.55 115.99-0.3Q115.44-0.05 114.47 0.15 113.49 0.35 112.47 0.43 111.44 0.5 110.69 0.5L110.69 0.5Q107.64 0.5 105.84-1.15 104.04-2.8 104.04-5.9L104.04-5.9 104.04-35ZM119.79-35L125.84-35 125.79-7.4Q125.79-6 126.59-5.28 127.39-4.55 128.89-4.55L128.89-4.55 131.04-4.55 131.74-0.3Q131.19-0.05 130.22 0.15 129.24 0.35 128.22 0.43 127.19 0.5 126.44 0.5L126.44 0.5Q123.39 0.5 121.59-1.15 119.79-2.8 119.79-5.9L119.79-5.9 119.79-35Z" fill="#096a2e" data-fill-palette-color="primary"></path></g></svg></g></svg></g><g transform="matrix(1,0,0,1,0,83.09024537399472)"><svg viewBox="0 0 244.43135999999998 22.3196832610231" height="22.3196832610231" width="244.43135999999998"><g transform="matrix(1,0,0,1,0,0)"><svg width="244.43135999999998" viewBox="3.65 -36.2 495.55 45.25" height="22.3196832610231" data-palette-color="#31c48d"><path d="M23.1-4.3L23.1 0 3.65 0 3.65-33.7 22.85-33.7 22.85-29.4 8.8-29.4 8.8-19 21.25-19 21.25-14.7 8.8-14.7 8.8-4.3 23.1-4.3ZM34.3-35.35L34.3 0 29.35 0 29.35-35.35 34.3-35.35ZM60.3-5.75L60.3-1.35Q57.5 0.25 52.9 0.25L52.9 0.25Q47 0.25 43.5-3.3 40-6.85 40-12.6L40-12.6Q40-18.7 43.2-22.18 46.4-25.65 51.35-25.65L51.35-25.65Q56.2-25.65 59.05-22.63 61.9-19.6 61.9-13.9L61.9-13.9Q61.9-12.35 61.6-10.65L61.6-10.65 44.95-10.65Q45.45-7.35 47.75-5.6 50.05-3.85 53.55-3.85L53.55-3.85Q57.6-3.85 60.3-5.75L60.3-5.75ZM51.45-21.6L51.45-21.6Q48.95-21.6 47.15-19.78 45.35-17.95 44.9-14.5L44.9-14.5 57.15-14.5 57.15-15.4Q57.05-18.25 55.6-19.93 54.15-21.6 51.45-21.6ZM85.55-5.4L85.55-1Q83.1 0.5 79.3 0.5L79.3 0.5Q73.35 0.5 69.8-3.25 66.25-7 66.25-12.6L66.25-12.6Q66.25-18.05 69.83-21.93 73.4-25.8 79.5-25.8L79.5-25.8Q82.8-25.8 85.55-24.4L85.55-24.4 85.55-19.9Q83.1-21.45 80-21.45L80-21.45Q76.05-21.45 73.67-18.95 71.3-16.45 71.3-12.55L71.3-12.55Q71.4-8.7 73.65-6.23 75.9-3.75 79.95-3.75L79.95-3.75Q82.95-3.75 85.55-5.4L85.55-5.4ZM104.5-5.05L104.5-0.65Q102.85 0.25 100.45 0.25L100.45 0.25Q92.6 0.25 92.6-7.7L92.6-7.7 92.6-21.55 88.65-21.55 88.65-25.35 92.6-25.35 92.6-31.55 97.55-31.55 97.55-25.35 104.2-25.35 104.2-21.55 97.55-21.55 97.55-7.6Q97.55-3.95 101.05-3.95L101.05-3.95Q103.1-3.95 104.5-5.05L104.5-5.05ZM114.8-13.5L114.8 0 109.9 0 109.9-25.35 114.8-25.35 114.8-20.9Q116.65-25.6 121.45-25.6L121.45-25.6Q122.15-25.6 123-25.45L123-25.45 123-20.65Q121.95-21.1 120.65-21.1L120.65-21.1Q118.1-21.1 116.45-18.85 114.8-16.6 114.8-13.5L114.8-13.5ZM132-25.35L132 0 127.05 0 127.05-25.35 132-25.35ZM132.6-33.1L132.6-33.1Q132.6-31.85 131.7-30.95 130.8-30.05 129.5-30.05 128.2-30.05 127.33-30.93 126.45-31.8 126.45-33.1 126.45-34.4 127.33-35.3 128.2-36.2 129.5-36.2 130.8-36.2 131.7-35.3 132.6-34.4 132.6-33.1ZM157-5.4L157-1Q154.55 0.5 150.75 0.5L150.75 0.5Q144.8 0.5 141.25-3.25 137.7-7 137.7-12.6L137.7-12.6Q137.7-18.05 141.28-21.93 144.85-25.8 150.95-25.8L150.95-25.8Q154.25-25.8 157-24.4L157-24.4 157-19.9Q154.55-21.45 151.45-21.45L151.45-21.45Q147.5-21.45 145.13-18.95 142.75-16.45 142.75-12.55L142.75-12.55Q142.85-8.7 145.1-6.23 147.35-3.75 151.4-3.75L151.4-3.75Q154.4-3.75 157-5.4L157-5.4ZM180.15-13.2L179.15 0 174.05 0 176.65-33.7 182.75-33.7 187.25-21.4Q188.45-18.25 189.65-14.73 190.85-11.2 191.45-9.25L191.45-9.25 192.1-7.3Q194.4-14.1 197.15-21.4L197.15-21.4 201.85-33.7 207.95-33.7 211.05 0 205.95 0 204.75-13.2 203.7-26.7Q201.45-20.35 198.8-13.2L198.8-13.2 194.1-0.65 190.05-0.65 185.5-13.2 180.95-26.5Q180.95-24.3 180.15-13.2L180.15-13.2ZM237.25-22.03Q240.4-18.35 240.4-12.65 240.4-6.95 237.18-3.25 233.95 0.45 228.3 0.45L228.3 0.45Q222.7 0.45 219.5-3.2 216.3-6.85 216.3-12.45L216.3-12.45Q216.3-18.15 219.6-21.93 222.9-25.7 228.3-25.7L228.3-25.7Q234.1-25.7 237.25-22.03ZM221.4-12.6L221.4-12.6Q221.4-8.85 223.25-6.28 225.1-3.7 228.3-3.7L228.3-3.7Q231.7-3.7 233.48-6.2 235.25-8.7 235.25-12.55L235.25-12.55Q235.25-16.5 233.55-19.03 231.85-21.55 228.25-21.55L228.25-21.55Q225-21.55 223.2-18.98 221.4-16.4 221.4-12.6ZM250.95-3.85L250.95 0 246 0 246-35.35 250.95-35.35 250.95-21.5Q253.65-25.7 258.6-25.7L258.6-25.7Q263.4-25.7 266.45-22.1 269.5-18.5 269.5-12.55L269.5-12.55Q269.5-7.2 266.6-3.43 263.7 0.35 258.65 0.35 253.6 0.35 250.95-3.85L250.95-3.85ZM250.95-12.85L250.95-12.85Q250.95-8.35 252.95-6.15 254.95-3.95 257.85-3.95L257.85-3.95Q260.65-3.95 262.55-6.33 264.45-8.7 264.45-12.45L264.45-12.45Q264.45-16.75 262.55-19.07 260.65-21.4 257.7-21.4L257.7-21.4Q255.1-21.4 253.03-19.3 250.95-17.2 250.95-12.85ZM280.15-25.35L280.15 0 275.2 0 275.2-25.35 280.15-25.35ZM280.75-33.1L280.75-33.1Q280.75-31.85 279.85-30.95 278.95-30.05 277.65-30.05 276.35-30.05 275.48-30.93 274.6-31.8 274.6-33.1 274.6-34.4 275.48-35.3 276.35-36.2 277.65-36.2 278.95-36.2 279.85-35.3 280.75-34.4 280.75-33.1ZM292.4-35.35L292.4 0 287.45 0 287.45-35.35 292.4-35.35ZM304.65-25.35L304.65 0 299.7 0 299.7-25.35 304.65-25.35ZM305.25-33.1L305.25-33.1Q305.25-31.85 304.35-30.95 303.45-30.05 302.15-30.05 300.85-30.05 299.98-30.93 299.1-31.8 299.1-33.1 299.1-34.4 299.98-35.3 300.85-36.2 302.15-36.2 303.45-36.2 304.35-35.3 305.25-34.4 305.25-33.1ZM325.05-5.05L325.05-0.65Q323.4 0.25 321 0.25L321 0.25Q313.15 0.25 313.15-7.7L313.15-7.7 313.15-21.55 309.2-21.55 309.2-25.35 313.15-25.35 313.15-31.55 318.1-31.55 318.1-25.35 324.75-25.35 324.75-21.55 318.1-21.55 318.1-7.6Q318.1-3.95 321.6-3.95L321.6-3.95Q323.65-3.95 325.05-5.05L325.05-5.05ZM351.55-25.35L342.4-0.7Q338.75 9.05 331.25 9.05L331.25 9.05Q329.9 9.05 328.95 8.8L328.95 8.8 328.95 4.6Q329.75 4.8 330.65 4.8L330.65 4.8Q335.5 4.8 337.45-0.55L337.45-0.55 327.35-25.35 332.8-25.35 335.95-17.1 339.9-6.4Q340.35-7.9 343.5-17.1L343.5-17.1 346.35-25.35 351.55-25.35ZM384.9-18.35L384.9-14.05 372.65-14.05 372.65 0 367.5 0 367.5-33.7 386.6-33.7 386.6-29.4 372.65-29.4 372.65-18.35 384.9-18.35ZM411.55-22.03Q414.7-18.35 414.7-12.65 414.7-6.95 411.48-3.25 408.25 0.45 402.6 0.45L402.6 0.45Q397 0.45 393.8-3.2 390.6-6.85 390.6-12.45L390.6-12.45Q390.6-18.15 393.9-21.93 397.2-25.7 402.6-25.7L402.6-25.7Q408.4-25.7 411.55-22.03ZM395.7-12.6L395.7-12.6Q395.7-8.85 397.55-6.28 399.4-3.7 402.6-3.7L402.6-3.7Q406-3.7 407.78-6.2 409.55-8.7 409.55-12.55L409.55-12.55Q409.55-16.5 407.85-19.03 406.15-21.55 402.55-21.55L402.55-21.55Q399.3-21.55 397.5-18.98 395.7-16.4 395.7-12.6ZM425.1-13.5L425.1 0 420.2 0 420.2-25.35 425.1-25.35 425.1-20.9Q426.95-25.6 431.75-25.6L431.75-25.6Q432.45-25.6 433.3-25.45L433.3-25.45 433.3-20.65Q432.25-21.1 430.95-21.1L430.95-21.1Q428.4-21.1 426.75-18.85 425.1-16.6 425.1-13.5L425.1-13.5ZM457-14.25L457-14.25 456.45-12.55 467.25-12.55 466.7-14.25Q464.8-20.15 463.6-24.03 462.4-27.9 462.15-28.85L462.15-28.85 461.9-29.8Q461.35-27.45 457-14.25ZM455.05-8.25L452.35 0 446.9 0 458.55-33.7 465.3-33.7 476.8 0 471.3 0 468.65-8.25 455.05-8.25ZM486.95-35.35L486.95 0 482 0 482-35.35 486.95-35.35ZM499.2-35.35L499.2 0 494.25 0 494.25-35.35 499.2-35.35Z" opacity="1" transform="matrix(1,0,0,1,0,0)" fill="#31c48d" class="undefined-text-1" data-fill-palette-color="secondary" id="text-1"></path></svg></g></svg></g></svg></g></svg></g><g transform="matrix(1,0,0,1,260.3006210866251,0)"><svg viewBox="0 0 101.8023027919648 145.67652137359465" height="145.67652137359465" width="101.8023027919648"><g><svg xmlns="http://www.w3.org/2000/svg" xmlns:xlink="http://www.w3.org/1999/xlink" version="1.1" x="0" y="0" viewBox="284.429 173.286 418.29600000000005 598.5709999999999" enable-background="new 0 0 1000 1000" xml:space="preserve" height="145.67652137359465" width="101.8023027919648" class="icon-icon-0" data-fill-palette-color="accent" id="icon-0"><g fill="#31c48d" data-fill-palette-color="accent"><polygon points="702.725,173.286 528.082,173.286 284.429,477.501 467.521,477.501 302.134,771.857 695.683,401.447    512.59,401.447  " fill="#31c48d" data-fill-palette-color="accent"></polygon></g></svg></g></svg></g></svg></g></svg></g></svg></g><g><path d="M151.089 183.48A122.216 122.216 0 1 0 151.089 63.72L155.181 63.72A118.124 118.124 0 1 1 155.181 183.48L151.089 183.48" fill="#31c48d" stroke="transparent" data-fill-palette-color="tertiary"></path></g></svg></g></svg><rect width="395.52" height="247.2" fill="none" stroke="none" visibility="hidden"></rect></g></svg></g></svg>